<svg xmlns="http://www.w3.org/2000/svg" width="68" height="68" viewBox="0 0 68 68">
    <path d="M69.75 74a50.945 50.945 0 0 1-22.9-5.667A77.761 77.761 0 0 1 26.4 53.6a77.761 77.761 0 0 1-14.733-20.447A50.945 50.945 0 0 1 6 10.25 4.193 4.193 0 0 1 10.25 6h13.222a3.341 3.341 0 0 1 2.314.9 4.174 4.174 0 0 1 1.275 2.408l2.55 11.9a6.793 6.793 0 0 1-.047 2.408 3.639 3.639 0 0 1-.992 1.842l-9.444 9.539a78.412 78.412 0 0 0 11.853 15.3 65.507 65.507 0 0 0 14.875 11.05l8.972-9.256A5.222 5.222 0 0 1 57 50.625a4.366 4.366 0 0 1 2.456-.142l11.239 2.456A4.126 4.126 0 0 1 74 57v12.75A4.193 4.193 0 0 1 69.75 74zM16.294 29.8l7.65-7.744-2.172-10.389H11.667a32.508 32.508 0 0 0 1.133 8.075A76.128 76.128 0 0 0 16.294 29.8zm34.85 34.283a47.138 47.138 0 0 0 8.406 2.928 44.324 44.324 0 0 0 8.783 1.322V58.228l-9.728-1.983zM16.294 29.8zm34.85 34.283z" transform="translate(-6 -6)" style="fill:#fff"/>
</svg>
