<svg xmlns="http://www.w3.org/2000/svg" width="54.118" height="67.647" viewBox="0 0 54.118 67.647">
    <path d="M35.059 36.978a5.919 5.919 0 0 0 4.186-10.1 5.919 5.919 0 0 0-8.371 8.371 5.7 5.7 0 0 0 4.185 1.729zm0 27.989q11.246-10.231 16.616-18.56t5.37-14.671q0-9.978-6.384-16.32a21.3 21.3 0 0 0-15.6-6.342 21.3 21.3 0 0 0-15.6 6.342q-6.384 6.342-6.384 16.32 0 6.342 5.5 14.671t16.482 18.56zm0 6.68q-13.614-11.584-20.337-21.52T8 31.735q0-12.684 8.16-20.21A27.03 27.03 0 0 1 35.059 4a27.03 27.03 0 0 1 18.9 7.526q8.16 7.526 8.16 20.21 0 8.456-6.722 18.392T35.059 71.647zm0-39.912z" transform="translate(-8 -4)" style="fill:#fff"/>
</svg>
