<svg xmlns="http://www.w3.org/2000/svg" width="32.16" height="32.16" viewBox="0 0 32.16 32.16">
    <path data-name="Icon metro-linkedin" d="M29.329 1.928H7.973a5.418 5.418 0 0 0-5.4 5.4v21.358a5.418 5.418 0 0 0 5.4 5.4h21.356a5.418 5.418 0 0 0 5.4-5.4V7.33a5.418 5.418 0 0 0-5.4-5.4zm-14.7 26.13h-4.02v-14.07h4.02v14.07zm-2.01-16.08a2.01 2.01 0 1 1 2.01-2.01 2.01 2.01 0 0 1-2.008 2.01zM28.7 28.058h-4.02v-8.04a2.01 2.01 0 1 0-4.02 0v8.04h-4.02v-14.07h4.02v2.5c.829-1.139 2.1-2.5 3.518-2.5a4.794 4.794 0 0 1 4.522 5.025v9.045z" transform="translate(-2.571 -1.928)" style="fill:#fff"/>
</svg>
