<svg xmlns="http://www.w3.org/2000/svg" width="32.388" height="32.866" viewBox="0 0 32.388 32.866">
    <path d="M8.938 32.866A9.014 9.014 0 0 1 0 23.8V9.069A9.014 9.014 0 0 1 8.938 0H23.45a9.014 9.014 0 0 1 8.938 9.069V23.8a9.015 9.015 0 0 1-8.938 9.07zM2.874 9.069V23.8a6.116 6.116 0 0 0 6.064 6.15H23.45a6.117 6.117 0 0 0 6.065-6.15V9.069a6.117 6.117 0 0 0-6.065-6.153H8.938a6.116 6.116 0 0 0-6.064 6.153zm4.975 7.364a8.347 8.347 0 1 1 8.346 8.467 8.417 8.417 0 0 1-8.346-8.467zm2.874 0a5.473 5.473 0 1 0 5.472-5.553 5.519 5.519 0 0 0-5.472 5.553zM23.4 9.142a2.159 2.159 0 0 1 0-3.025 2.085 2.085 0 0 1 2.979 0 2.161 2.161 0 0 1 0 3.025 2.085 2.085 0 0 1-2.979 0z" style="fill:#ececec"/>
</svg>
