<svg xmlns="http://www.w3.org/2000/svg" width="26.605" height="32.866" viewBox="0 0 26.605 32.866">
    <path d="M1088.966 960.04h-1.752l.008-1.048a.839.839 0 0 1 .825-.847h.112a.84.84 0 0 1 .827.847zm-6.572-2.245a.756.756 0 0 0-.808.684v5.1a.821.821 0 0 0 1.618 0v-5.1a.756.756 0 0 0-.81-.684zm10.673-2.85v9.693a4.3 4.3 0 0 1-4.353 4.228h-17.9a4.3 4.3 0 0 1-4.353-4.228v-9.693a4.3 4.3 0 0 1 4.353-4.228h17.9a4.3 4.3 0 0 1 4.353 4.228zm-21.058 10.745v-10.21h2.219v-1.513l-5.915-.009v1.488l1.847.005v10.239zm6.651-8.69h-1.85v5.452a9.961 9.961 0 0 1 0 1.322c-.15.423-.827.872-1.09.045a11.253 11.253 0 0 1-.006-1.33L1075.7 957h-1.84l.006 5.4c0 .828-.018 1.446.007 1.727.045.5.029 1.073.476 1.4.832.617 2.427-.092 2.826-.975v1.126h1.485V957zm5.918 6.244v-4.538c0-1.73-1.258-2.765-2.964-1.366l.007-3.374h-1.848l-.009 11.645 1.519-.023.138-.725c1.939 1.837 3.16.581 3.157-1.618zm5.789-.6-1.387.008V963.645a.768.768 0 0 1-.758.774h-.271a.769.769 0 0 1-.759-.774v-2.1h3.177v-1.231a20.029 20.029 0 0 0-.094-2.313c-.227-1.626-2.445-1.884-3.566-1.052a2.148 2.148 0 0 0-.776 1.076 6.223 6.223 0 0 0-.236 1.918v2.706c-.004 4.499 5.303 3.863 4.67-.006zm-7.115-14.69a1.293 1.293 0 0 0 .445.578 1.261 1.261 0 0 0 .757.217 1.155 1.155 0 0 0 .709-.227 1.742 1.742 0 0 0 .519-.683l-.035.747h2.062v-9.027h-1.624v7.026a.676.676 0 1 1-1.352 0v-7.026h-1.695v6.089c0 .776.014 1.293.036 1.555a2.7 2.7 0 0 0 .178.75zm-6.249-5.1a7.724 7.724 0 0 1 .209-2.031 2.273 2.273 0 0 1 .758-1.171 2.147 2.147 0 0 1 1.4-.445 2.5 2.5 0 0 1 1.227.285 2.07 2.07 0 0 1 .792.74 2.985 2.985 0 0 1 .382.94 7.719 7.719 0 0 1 .1 1.478v2.283a12.689 12.689 0 0 1-.1 1.845 2.973 2.973 0 0 1-.406 1.1 1.951 1.951 0 0 1-.794.751 2.47 2.47 0 0 1-1.119.242 3.026 3.026 0 0 1-1.192-.207 1.644 1.644 0 0 1-.76-.626 2.82 2.82 0 0 1-.387-1.012 10.017 10.017 0 0 1-.115-1.78v-2.39zm1.615 3.586a.826.826 0 1 0 1.639 0v-4.805a.826.826 0 1 0-1.639 0zm-5.707 2.427h1.945v-6.923l2.3-5.931h-2.128l-1.221 4.406-1.24-4.418h-2.106l2.446 5.947z" transform="translate(-1066.462 -936)" style="fill:#ececec"/>
</svg>
